<?xml version="1.0" encoding="UTF-8"?>
<svg width="32px" height="32px" viewBox="0 0 32 32" version="1.1" xmlns="http://www.w3.org/2000/svg" xmlns:xlink="http://www.w3.org/1999/xlink">
    <title>icon</title>
    <defs>
        <linearGradient x1="100%" y1="0%" x2="0%" y2="100%" id="linearGradient-1">
            <stop stop-color="#F1D961" offset="0%"></stop>
            <stop stop-color="#CDA146" offset="100%"></stop>
        </linearGradient>
    </defs>
    <g id="conin-98" stroke="none" stroke-width="1" fill="none" fill-rule="evenodd">
        <g id="icon">
            <circle id="Oval" fill="url(#linearGradient-1)" cx="16" cy="16" r="16"></circle>
            <path d="M21.2365705,14.010055 C18.4719925,14.0075335 16.2288133,16.2466206 16.2262868,19.0111986 C16.2237646,21.7757765 18.4628511,24.0189564 21.227429,24.0214836 C23.992007,24.0240066 26.2351875,21.7849208 26.2377134,19.0203428 C26.2367119,16.2572213 23.9996856,14.0161053 21.2365705,14.010055 L21.2365705,14.010055 Z M21.2365705,21.9643446 C20.0426453,21.9634148 18.9669267,21.2431314 18.5113153,20.139557 C18.0557038,19.0359827 18.3099899,17.7666059 19.1555306,16.923683 C20.0010713,16.0807601 21.2712304,15.8304112 22.3733867,16.2894424 C23.475543,16.7484736 24.1924874,17.8264205 24.1897214,19.0203428 C24.1864343,20.6484799 22.86471,21.9661123 21.2365705,21.9643446 L21.2365705,21.9643446 Z M22.2697134,19.0386285 C22.2728185,19.478887 21.9952538,19.8722568 21.5794276,20.0169142 L21.5794276,20.7666285 L20.8937134,20.7666285 L20.8937134,20.0169142 C20.4755514,19.8753716 20.1966049,19.4800435 20.2034276,19.0386285 C20.2034276,18.4680395 20.6659815,18.0054857 21.2365705,18.0054857 C21.8071595,18.0054857 22.2697134,18.4680395 22.2697134,19.0386285 L22.2697134,19.0386285 Z M15.0468562,19.7380571 C15.0468562,22.1037294 13.1290999,24.0214857 10.7634276,24.0214857 C8.39775537,24.0214857 6.47999908,22.1037294 6.47999908,19.7380571 L8.53714193,19.7380571 C8.53714193,20.9688631 9.53490735,21.9666285 10.7657134,21.9666285 C11.9965194,21.9666285 12.9942848,20.9688631 12.9942848,19.7380571 L15.0468562,19.7380571 Z M5.76228664,13.0012938 C5.76312871,15.7646827 8.00308776,18.0046417 10.7664767,18.0054838 C13.5298656,18.0063249 15.7711886,15.7677307 15.7737134,13.0043428 C15.7722001,10.2378655 13.529905,7.99557035 10.7634276,7.9940571 C8.00003978,7.99658189 5.76144551,10.2379049 5.76228664,13.0012938 Z M8.03112024,14.1341069 C7.5730899,13.0295317 7.82579853,11.7577951 8.67133923,10.9122544 C9.51687994,10.0667137 10.7886165,9.81400506 11.8931917,10.2720354 C12.9977669,10.7300657 13.717495,11.808568 13.7165723,13.0043428 C13.7108029,14.6329236 12.3920084,15.9517181 10.7634276,15.9574874 C9.56765287,15.9584101 8.48915058,15.2386821 8.03112024,14.1341069 Z M11.8011419,13.1232 C11.8047384,13.6506483 11.4112658,14.0965002 10.8874628,14.1585086 C10.3636598,14.2205171 9.87696102,13.878861 9.75730398,13.3651521 C9.63764694,12.8514432 9.92328025,12.3298895 10.4205705,12.1540571 L10.4205705,11.4089142 L11.1108562,11.4089142 L11.1108562,12.1540571 C11.52446,12.2963358 11.8018679,12.685809 11.8011419,13.1232 L11.8011419,13.1232 Z M25.5200096,12.2774857 C25.5215999,12.9937292 25.34067,13.6985689 24.9942848,14.3254857 C24.4592122,13.8905713 23.8508173,13.5546383 23.1977134,13.3334857 C23.6395116,12.5159944 23.5274591,11.5101398 22.9165869,10.8099164 C22.3057147,10.1096929 21.3243623,9.86221215 20.4544908,10.1890166 C19.5846192,10.515821 19.0089816,11.3482516 19.0102848,12.2774857 C19.0063271,12.6464365 19.0976528,13.0101647 19.2754276,13.3334857 C18.6223237,13.5546383 18.0139288,13.8905713 17.4788562,14.3254857 C17.132471,13.6985689 16.9515412,12.9937292 16.9531314,12.2774857 C16.9531314,9.91181339 18.8708982,7.9940571 21.2365705,7.9940571 C23.6022428,7.9940571 25.5200096,9.91181339 25.5200096,12.2774857 L25.5200096,12.2774857 Z" id="fill" fill="#252525" fill-rule="nonzero"></path>
        </g>
    </g>
</svg>